<?xml version="1.0" encoding="UTF-8" standalone="no"?>
<!-- Created with Inkscape (http://www.inkscape.org/) -->

<svg
   width="400"
   height="170"
   viewBox="0 0 105.83334 44.979167"
   version="1.1"
   id="svg1"
   inkscape:version="1.3.2 (091e20e, 2023-11-25, custom)"
   sodipodi:docname="logo.svg"
   inkscape:export-filename="logo.png"
   inkscape:export-xdpi="96"
   inkscape:export-ydpi="96"
   xmlns:inkscape="http://www.inkscape.org/namespaces/inkscape"
   xmlns:sodipodi="http://sodipodi.sourceforge.net/DTD/sodipodi-0.dtd"
   xmlns="http://www.w3.org/2000/svg"
   xmlns:svg="http://www.w3.org/2000/svg">
  <sodipodi:namedview
     id="namedview1"
     pagecolor="#ffffff"
     bordercolor="#000000"
     borderopacity="0.25"
     inkscape:showpageshadow="2"
     inkscape:pageopacity="0.0"
     inkscape:pagecheckerboard="0"
     inkscape:deskcolor="#d1d1d1"
     inkscape:document-units="mm"
     inkscape:zoom="1.2825338"
     inkscape:cx="217.53813"
     inkscape:cy="122.02408"
     inkscape:window-width="1366"
     inkscape:window-height="705"
     inkscape:window-x="-8"
     inkscape:window-y="-8"
     inkscape:window-maximized="1"
     inkscape:current-layer="layer1" />
  <defs
     id="defs1" />
  <g
     inkscape:label="Camada 1"
     inkscape:groupmode="layer"
     id="layer1">
    <g
       id="LinCity"
       transform="matrix(0.26458333,0,0,0.26458333,-158.25072,-5.7222905)">
      <path
         style="fill:#000000;fill-opacity:1;fill-rule:nonzero;stroke:none;stroke-width:1pt;stroke-linecap:butt;stroke-linejoin:miter;stroke-opacity:1"
         id="path1449"
         d="m 674.80639,26.179618 c -1.60167,17.923576 -0.91246,30.954548 -3.1008,43.661507 -2.84598,16.526748 -11.50451,43.582995 -21.09356,53.141135 -5.03848,5.47401 -10.98577,8.56669 -17.52453,12.24499 -1.4519,0.81677 -3.05572,1.42342 -4.57278,2.11129 -0.24447,0.11084 -0.94403,0.50137 -0.7305,0.33872 3.23238,-2.46241 6.18443,-7.0655 10.41867,-7.1769 14.50012,-1.3263 28.93951,0.2644 42.97974,3.96298 11.72953,3.41184 23.39795,7.92385 33.25508,15.28853 5.2779,4.32094 4.96688,1.52332 -7.52724,8.31258 -0.56962,0.30954 -0.44777,-1.21825 -0.71812,-1.80748 -1.00982,-2.20057 -2.09831,-4.36625 -3.12732,-6.55802 -3.63545,-8.19578 -13.81546,-20.16524 -9.67328,-32.4676 l 10.45037,-4.76585 c -5.26022,17.13235 3.47988,24.54469 7.81691,32.30726 1.06185,1.74428 2.13745,3.46836 3.43758,5.04868 0.39536,0.4806 0.81813,0.96024 1.28383,1.37661 0.21151,0.18918 0.97951,0.26816 0.74022,0.42073 -13.99035,8.91961 -7.48089,8.77646 -11.63343,3.68607 -7.9202,-8.60873 -19.53684,-13.10918 -30.37008,-16.67332 -14.74156,-4.0349 -30.64901,-5.60113 -45.57784,-1.54684 -5.70446,1.91789 -2.23292,0.44857 7.35752,-6.49862 0.88733,-0.6428 4.284,-1.76525 3.55249,-1.30307 -1.99678,1.26159 -4.0538,2.42566 -6.10122,3.60312 -1.06879,0.61461 1.51404,-0.74013 4.26771,-2.85272 3.2642,-2.50419 6.1593,-5.45642 8.66623,-8.7154 9.8916,-13.94524 13.99301,-30.964182 16.69074,-47.684443 2.24302,-13.902693 2.33469,-15.918387 -1.37235,-41.151154 z"
         sodipodi:nodetypes="csccccccccccccccccccccccccscc" />
      <path
         style="fill:#000000;fill-opacity:1;fill-rule:nonzero;stroke:none;stroke-width:1pt;stroke-linecap:butt;stroke-linejoin:miter;stroke-opacity:1"
         id="path1451"
         d="m 731.16367,91.881031 c -1.31174,5.852414 -1.82934,11.879369 -2.40338,17.842859 -1.1044,12.95399 -1.87884,25.98471 -1.33018,38.98829 0.11428,1.87543 0.049,0.97743 0.19067,2.69436 l -9.3865,4.75335 c 0.23108,-1.90784 0.11365,-0.91426 0.35067,-2.98097 1.42463,-13.14743 2.21839,-26.36302 2.47523,-39.5839 0.053,-5.34917 0.36506,-10.93072 -0.75247,-16.182642 z" />
      <path
         style="fill:#000000;fill-opacity:1;fill-rule:nonzero;stroke:none;stroke-width:1pt;stroke-linecap:butt;stroke-linejoin:miter;stroke-opacity:1"
         id="path1453"
         d="m 731.97512,77.092466 c -0.49121,2.059027 -0.64451,4.185301 -0.76523,6.294347 -0.0713,1.282866 -0.0966,2.567507 -0.10733,3.852093 l -10.05627,5.077032 c 0.0847,-1.303658 0.16201,-2.607906 0.20798,-3.913597 0.0652,-1.914869 0.18322,-3.887154 -0.13512,-5.778526 z" />
      <path
         style="fill:#000000;fill-opacity:1;fill-rule:nonzero;stroke:none;stroke-width:1pt;stroke-linecap:butt;stroke-linejoin:miter;stroke-opacity:1"
         id="path1466"
         d="m 749.17045,82.620752 c -1.47287,7.068731 -1.48474,14.415814 -1.65534,21.612308 -0.31745,13.44995 0.14042,26.89696 0.54967,40.33886 -0.007,3.41306 0.33691,6.91302 -0.48704,10.26163 l -12.0485,4.84809 c 3.01115,-0.90796 2.2381,-8.04926 2.95193,-10.26566 1.24734,-13.59588 0.9934,-27.28166 0.66622,-40.91318 -0.23967,-6.60112 -0.21492,-13.433726 -1.77492,-19.87069 z" />
      <path
         style="fill:#000000;fill-opacity:1;fill-rule:nonzero;stroke:none;stroke-width:1pt;stroke-linecap:butt;stroke-linejoin:miter;stroke-opacity:1"
         id="path1470"
         d="m 738.54733,103.24392 c 0.10039,-1.2194 0.61496,-2.32041 1.18421,-3.3883 5.98251,-8.469411 16.66346,-14.585511 26.97871,-15.654658 13.69058,-0.47926 18.19328,13.672607 19.83688,24.838328 1.24203,10.73637 -3.78559,34.33498 -10.28811,45.21579 l -9.01046,4.27785 c 6.39796,-15.73778 13.01703,-34.45839 11.41423,-45.30956 -2.05487,-10.83109 -7.57282,-23.667672 -20.66132,-22.523278 -2.46728,0.380723 -4.78569,0.967863 -7.07,2.000307 -0.53868,0.243433 -2.09553,1.091591 -1.58967,0.785803 16.56535,-10.014106 3.96376,-3.232794 1.68286,1.268204 -0.36417,0.765215 -0.78454,1.603978 -0.65978,2.468192 z"
         sodipodi:nodetypes="ccccccccccccc" />
      <path
         style="fill:#000000;fill-opacity:1;fill-rule:nonzero;stroke:none;stroke-width:1pt;stroke-linecap:butt;stroke-linejoin:miter;stroke-opacity:1"
         id="path1478"
         d="m 879.86009,68.558703 c -0.32036,-2.848001 -4.77659,-6.416746 -7.3257,-8.365401 -16.08614,-11.233494 -36.44326,-11.610312 -54.07108,-4.013342 -12.57532,6.453447 -24.22012,26.442384 -24.07162,47.6527 0.7377,17.06174 10.64609,30.47566 25.59209,38.01808 17.34004,7.76327 36.715,5.50087 54.11212,-0.79188 3.52938,-1.37568 6.97062,-2.97477 10.28356,-4.81241 0.98368,-0.54565 3.91414,-2.21633 2.91164,-1.70618 -10.78411,5.48734 -4.36506,2.30368 -1.70647,0.14322 l 9.45734,-3.79138 c -8.23766,6.41376 -17.63552,11.38727 -27.35022,15.15855 -17.6806,6.01683 -37.52997,8.22407 -55.11739,0.67341 -15.40223,-7.69832 -25.27287,-21.65423 -25.43185,-39.20416 0.51861,-25.164925 13.87292,-45.300502 36.93447,-55.772915 18.63435,-7.76815 39.14515,-6.444769 56.99711,2.964732 3.79203,2.106628 7.88005,4.352443 10.60354,7.825651 z" />
      <path
         style="fill:#000000;fill-opacity:1;fill-rule:nonzero;stroke:none;stroke-width:1pt;stroke-linecap:butt;stroke-linejoin:miter;stroke-opacity:1"
         id="path1484"
         d="m 890.98224,88.478526 c -0.69729,3.200598 -1.00376,6.462523 -1.34988,9.699988 -1.27045,14.027026 -1.74789,28.101906 -1.97481,42.164306 0.13373,3.69372 -0.33627,7.43882 0.18992,11.11926 l -11.50325,4.45897 c 2.78891,-3.41449 1.81444,-8.45869 3.10825,-12.22915 1.8993,-13.84214 2.34215,-27.8316 1.03419,-41.72464 -0.30646,-2.866198 -0.58275,-5.774527 -1.32197,-8.58844 z" />
      <path
         style="fill:#000000;fill-opacity:1;fill-rule:nonzero;stroke:none;stroke-width:1pt;stroke-linecap:butt;stroke-linejoin:miter;stroke-opacity:1"
         id="path1486"
         d="m 893.84602,67.021368 c -0.52252,1.675817 -1.35392,3.93708 -1.81633,5.855843 -0.85551,3.961154 -1.54308,8.004523 -1.56493,12.068691 l -11.13452,5.570502 c 0.55965,-4.135146 1.23307,-8.254394 1.85687,-12.380088 0.1908,-1.22805 0.5575,-4.729684 0.84149,-5.093623 z" />
      <path
         style="fill:#000000;fill-opacity:1;fill-rule:nonzero;stroke:none;stroke-width:1pt;stroke-linecap:butt;stroke-linejoin:miter;stroke-opacity:1"
         id="path1490"
         d="m 915.61136,46.85842 c -1.23812,6.32554 -1.53057,12.837066 -1.9493,19.260234 -1.28257,23.918928 -1.0943,47.908446 0.0842,71.827846 0.1855,3.61965 0.17401,3.56134 0.38186,7.02176 0.14042,2.3352 0.28475,4.67234 0.49979,7.00217 0.0525,0.56877 0.16605,1.70385 0.28488,2.3324 0.0567,0.29965 0.59879,0.71164 0.32894,0.85375 -12.00203,6.32039 -11.75428,9.60658 -11.75364,2.88505 l 10.59621,-5.55357 c 1.50027,5.89884 4.21707,-0.4024 -10.73575,7.82287 -0.33627,0.18496 0.72545,-0.38841 0.88355,-0.7381 0.35053,-0.77514 0.65031,-2.01379 0.81725,-2.79479 1.07333,-5.02277 1.35644,-10.1825 1.74006,-15.28923 1.2409,-23.8058 0.95312,-47.701164 -0.75234,-71.476257 -0.51142,-5.713849 -0.88014,-11.552008 -2.24315,-17.132807 z" />
      <path
         style="fill:#000000;fill-opacity:1;fill-rule:nonzero;stroke:none;stroke-width:1pt;stroke-linecap:butt;stroke-linejoin:miter;stroke-opacity:1"
         id="path1492"
         d="m 904.03513,124.57025 c 2.78511,1.04721 7.14197,2.26401 9.83995,2.6105 9.65055,1.11221 19.29591,0.30941 28.98914,-0.54565 l 7.41788,-0.26045 c -8.0442,4.78382 -9.24091,7.29757 -16.61371,7.00527 -9.59284,-0.0272 -19.0469,0.27751 -28.61953,-0.27383 -3.57484,-0.21586 -9.99136,-0.32889 -12.83115,-2.51452 z"
         sodipodi:nodetypes="cccccccc" />
      <path
         style="fill:#000000;fill-opacity:1;fill-rule:nonzero;stroke:none;stroke-width:1pt;stroke-linecap:butt;stroke-linejoin:miter;stroke-opacity:1"
         id="path1496"
         d="m 979.55674,99.509861 c -2.33456,6.046829 -4.43072,12.186229 -6.56211,18.306379 -7.09639,20.62953 -15.30197,42.03906 -32.38972,56.50518 -9.83225,7.30254 -22.32233,14.755 -34.57982,9.15701 l 9.19406,-6.068 c 4.45169,2.27868 9.23296,2.65068 14.06789,1.29704 3.29779,-0.92333 5.40657,-2.22397 5.19102,-2.05807 -1.46668,1.1288 -3.10156,2.04041 -4.76927,2.84297 -1.09884,0.52879 2.03492,-1.34447 3.05232,-2.01671 17.88403,-13.95599 27.41045,-35.02458 33.37503,-56.42373 1.93933,-6.97105 3.70048,-13.96934 4.93545,-21.102046 0.0138,-0.07953 0.40648,-3.971818 0.41532,-3.976547 3.89115,-2.071315 7.876,-3.961814 11.814,-5.942722 0,0 -2.97515,7.487407 -3.74417,9.479246 z"
         sodipodi:nodetypes="cccccccccccccc" />
      <path
         style="fill:#000000;fill-opacity:1;fill-rule:nonzero;stroke:none;stroke-width:1pt;stroke-linecap:butt;stroke-linejoin:miter;stroke-opacity:1"
         id="path1502"
         d="m 919.49974,98.740702 c 7.66765,-5.151566 10.47486,-7.954391 18.49154,-6.761192 10.3717,1.961168 18.43105,8.89892 23.47977,17.93557 4.73997,9.54289 5.27588,20.55619 2.30767,30.71277 -0.30735,1.06094 -0.74995,2.06782 -1.22247,3.06241 l -10.97453,4.8541 c 0.73214,-0.98293 1.41907,-1.99014 1.91155,-3.12107 4.24548,-9.75445 4.17236,-21.00512 -0.60158,-30.56602 -5.13369,-8.99956 -13.76192,-15.545805 -24.36697,-16.111146 z"
         sodipodi:nodetypes="cccccccccc" />
      <path
         style="fill:#000000;fill-opacity:1;fill-rule:nonzero;stroke:none;stroke-width:1pt;stroke-linecap:butt;stroke-linejoin:miter;stroke-opacity:1"
         id="path8379"
         d="m 621.93884,154.71769 c 21.02713,3.19015 49.10078,4.86578 70.83265,6.29689 98.18414,5.92673 193.23654,11.24893 291.85114,14.3081 4.60612,0.14794 9.21237,0.29588 13.81849,0.44384 l -12.272,4.58791 c -3.9447,-0.39239 -7.88952,-0.78479 -11.83421,-1.17719 -97.28355,-8.56691 -196.22142,-10.90265 -294.69548,-11.53637 -26.95649,-0.1153 -54.95374,-0.51083 -81.52647,0.63577 z"
         sodipodi:nodetypes="ccccccccc" />
      <path
         style="fill:#000000;fill-opacity:0.512111;fill-rule:nonzero;stroke:#000000;stroke-width:2.52549;stroke-linecap:round;stroke-linejoin:round;stroke-miterlimit:4;stroke-opacity:0.186851"
         id="path9139"
         d="m 676.28456,26.890209 c -1.60167,17.923582 -0.91246,30.954551 -3.10067,43.661511 -2.84611,16.526744 -11.50464,43.58299 -21.09356,53.14113 -5.03861,5.474 -10.98577,8.56669 -17.52466,12.24499 -1.4519,0.81677 -3.05572,1.42342 -4.57265,2.11129 -0.24447,0.11084 -0.94403,0.50137 -0.7305,0.33872 3.23225,-2.46241 6.1843,-7.0655 10.41854,-7.1769 14.50025,-1.3263 28.93951,0.26439 42.97974,3.96298 11.72953,3.41184 23.39807,7.92386 33.25508,15.28854 5.2779,4.32093 4.96701,1.52332 -7.52711,8.31258 -0.56963,0.30953 -0.44777,-1.21825 -0.71813,-1.80749 -1.00994,-2.20056 -2.0983,-4.36625 -3.12744,-6.55801 -3.63545,-8.19578 -13.81546,-20.16526 -9.67327,-32.4676 l 10.45036,-4.76586 c -5.26022,17.13235 3.48001,24.54468 7.81691,32.30727 1.06185,1.74428 2.13758,3.46836 3.43771,5.04868 0.39536,0.4806 0.81813,0.96024 1.2837,1.37661 0.21164,0.18918 0.97964,0.26815 0.74023,0.42073 -13.99036,8.9196 -7.4809,8.77646 -11.63344,3.68607 -7.92008,-8.60874 -19.53684,-13.10918 -30.37008,-16.67333 -14.74156,-4.03491 -30.64901,-5.60113 -45.57771,-1.54684 -5.70446,1.91788 -2.23304,0.44856 7.35739,-6.49863 0.88746,-0.6428 4.28413,-1.76524 3.55262,-1.30306 -1.99679,1.26158 -4.0538,2.42566 -6.10134,3.60312 -1.06879,0.61462 1.51403,-0.74012 4.26783,-2.85272 3.26407,-2.50418 6.15917,-5.45642 8.66623,-8.7154 9.8916,-13.94524 13.99288,-30.964177 16.69061,-47.684437 2.24314,-13.902693 2.33469,-15.918391 -1.37223,-41.151157 z"
         sodipodi:nodetypes="csccccccccccccccccccccccccscc" />
      <path
         style="fill:#000000;fill-opacity:0.512111;fill-rule:nonzero;stroke:#000000;stroke-width:2.52549;stroke-linecap:round;stroke-linejoin:round;stroke-miterlimit:4;stroke-opacity:0.186851"
         id="path9141"
         d="m 732.64185,92.59163 c -1.31162,5.852403 -1.82935,11.87937 -2.40339,17.84284 -1.10427,12.95401 -1.87872,25.98472 -1.33018,38.98831 0.11428,1.87543 0.049,0.97743 0.1908,2.69436 l -9.3865,4.75334 c 0.23096,-1.90783 0.11365,-0.91425 0.35054,-2.98096 1.42463,-13.14745 2.21839,-26.36304 2.47536,-39.58391 0.053,-5.34917 0.36506,-10.93071 -0.75247,-16.182643 z" />
      <path
         style="fill:#000000;fill-opacity:0.512111;fill-rule:nonzero;stroke:#000000;stroke-width:2.52549;stroke-linecap:round;stroke-linejoin:round;stroke-miterlimit:4;stroke-opacity:0.186851"
         id="path9143"
         d="m 733.45329,77.803057 c -0.49121,2.059035 -0.64438,4.185299 -0.76523,6.294352 -0.0712,1.282862 -0.0966,2.567505 -0.10721,3.852085 l -10.05626,5.077039 c 0.0846,-1.30366 0.16188,-2.607901 0.20797,-3.913594 0.065,-1.914868 0.1831,-3.887152 -0.13511,-5.778532 z" />
      <path
         style="fill:#000000;fill-opacity:0.512111;fill-rule:nonzero;stroke:#000000;stroke-width:2.52549;stroke-linecap:round;stroke-linejoin:round;stroke-miterlimit:4;stroke-opacity:0.186851"
         id="path9145"
         d="m 750.64874,83.331351 c -1.47286,7.068731 -1.48473,14.41581 -1.65533,21.612309 -0.31746,13.44995 0.14042,26.89695 0.54967,40.33886 -0.007,3.41305 0.3369,6.91302 -0.48717,10.26163 l -12.0485,4.84809 c 3.01115,-0.90796 2.23822,-8.04926 2.95205,-10.26566 1.24722,-13.59588 0.99341,-27.28166 0.6661,-40.91318 -0.23967,-6.60113 -0.21492,-13.433738 -1.77479,-19.870692 z" />
      <path
         style="fill:#000000;fill-opacity:0.512111;fill-rule:nonzero;stroke:#000000;stroke-width:2.52549;stroke-linecap:round;stroke-linejoin:round;stroke-miterlimit:4;stroke-opacity:0.186851"
         id="path9147"
         d="m 740.02551,103.95452 c 0.10051,-1.21941 0.61495,-2.32041 1.1842,-3.3883 5.98264,-8.469423 16.66346,-14.585512 26.97872,-15.654668 13.69057,-0.47925 18.19328,13.672608 19.83699,24.838338 1.24192,10.73637 -3.78571,34.33498 -10.2881,45.21579 l -9.01046,4.27785 c 6.39784,-15.73778 13.01703,-34.4584 11.4141,-45.30957 -2.05474,-10.83109 -7.57282,-23.667666 -20.66119,-22.523276 -2.46741,0.380731 -4.78569,0.96787 -7.07013,2.000305 -0.53868,0.243432 -2.0954,1.091594 -1.58967,0.785807 16.56535,-10.014101 3.96389,-3.232796 1.68287,1.268202 -0.36405,0.765212 -0.78455,1.603979 -0.65979,2.468191 z"
         sodipodi:nodetypes="ccccccccccccc" />
      <path
         style="fill:#000000;fill-opacity:0.512111;fill-rule:nonzero;stroke:#000000;stroke-width:2.52549;stroke-linecap:round;stroke-linejoin:round;stroke-miterlimit:4;stroke-opacity:0.186851"
         id="path9149"
         d="m 881.33839,69.269299 c -0.32049,-2.848 -4.7766,-6.41675 -7.32583,-8.365408 -16.08601,-11.233486 -36.44326,-11.610302 -54.07108,-4.013339 -12.57532,6.453446 -24.22012,26.44239 -24.07162,47.652698 0.7377,17.06174 10.64609,30.47565 25.59222,38.01809 17.33992,7.76327 36.71487,5.50087 54.11212,-0.79188 3.52925,-1.37569 6.97062,-2.97478 10.28343,-4.81241 0.98368,-0.54567 3.91427,-2.21633 2.91164,-1.70618 -10.78411,5.48733 -4.36506,2.30366 -1.70647,0.14322 l 9.45734,-3.79139 c -8.23753,6.41376 -17.63552,11.38728 -27.35021,15.15856 -17.68061,6.01683 -37.52998,8.22407 -55.1174,0.67341 -15.4021,-7.69834 -25.27287,-21.65424 -25.43185,-39.20417 0.51874,-25.16492 13.87305,-45.300494 36.9346,-55.772909 18.63423,-7.768155 39.14503,-6.444771 56.99699,2.964727 3.79202,2.106629 7.88004,4.352449 10.60366,7.825648 z" />
      <path
         style="fill:#000000;fill-opacity:0.512111;fill-rule:nonzero;stroke:#000000;stroke-width:2.52549;stroke-linecap:round;stroke-linejoin:round;stroke-miterlimit:4;stroke-opacity:0.186851"
         id="path9151"
         d="m 892.46054,89.18912 c -0.69729,3.200597 -1.00376,6.462525 -1.35001,9.699994 -1.27045,14.027026 -1.74776,28.101896 -1.97481,42.164316 0.13373,3.69371 -0.33627,7.4388 0.18992,11.11924 l -11.50312,4.45898 c 2.78878,-3.41449 1.81444,-8.45869 3.10825,-12.22915 1.89917,-13.84216 2.34202,-27.83161 1.03407,-41.72465 -0.30647,-2.866199 -0.58264,-5.77452 -1.32185,-8.588438 z" />
      <path
         style="fill:#000000;fill-opacity:0.512111;fill-rule:nonzero;stroke:#000000;stroke-width:2.52549;stroke-linecap:round;stroke-linejoin:round;stroke-miterlimit:4;stroke-opacity:0.186851"
         id="path9153"
         d="m 895.32432,67.731968 c -0.52265,1.675817 -1.35404,3.937068 -1.81646,5.855837 -0.85539,3.961149 -1.54308,8.004528 -1.56492,12.068692 l -11.13453,5.570495 c 0.55978,-4.135143 1.2332,-8.254388 1.85687,-12.380085 0.1908,-1.228047 0.5575,-4.729682 0.8415,-5.093619 z" />
      <path
         style="fill:#000000;fill-opacity:0.512111;fill-rule:nonzero;stroke:#000000;stroke-width:2.52549;stroke-linecap:round;stroke-linejoin:round;stroke-miterlimit:4;stroke-opacity:0.186851"
         id="path9155"
         d="m 917.08966,47.569017 c -1.23812,6.325542 -1.5307,12.837061 -1.9493,19.260226 -1.2827,23.918928 -1.09443,47.908447 0.0841,71.827847 0.18549,3.61966 0.174,3.56135 0.38198,7.02177 0.14029,2.3352 0.28462,4.67234 0.49979,7.00217 0.0524,0.56877 0.16593,1.70385 0.28488,2.3324 0.0567,0.29965 0.59879,0.71164 0.32894,0.85375 -12.00216,6.32039 -11.7544,9.60658 -11.75377,2.88505 l 10.59621,-5.55357 c 1.50027,5.89884 4.21707,-0.4024 -10.73575,7.82287 -0.33627,0.18496 0.72545,-0.38841 0.88367,-0.73811 0.35054,-0.77513 0.65019,-2.01379 0.81713,-2.79478 1.07346,-5.02277 1.35644,-10.1825 1.74006,-15.28923 1.2409,-23.8058 0.95312,-47.701171 -0.75234,-71.47626 -0.51141,-5.713854 -0.88014,-11.552013 -2.24315,-17.132812 z" />
      <path
         style="fill:#000000;fill-opacity:0.512111;fill-rule:nonzero;stroke:#000000;stroke-width:2.52549;stroke-linecap:round;stroke-linejoin:round;stroke-miterlimit:4;stroke-opacity:0.186851"
         id="path9157"
         d="m 905.51343,125.28084 c 2.78498,1.04722 7.14184,2.264 9.83995,2.6105 9.65042,1.1122 19.29579,0.30941 28.98914,-0.54566 l 7.41775,-0.26044 c -8.0442,4.78382 -9.24091,7.29758 -16.61371,7.00527 -9.59271,-0.0272 -19.04677,0.27751 -28.61953,-0.27383 -3.57471,-0.21585 -9.99123,-0.3289 -12.83115,-2.51452 z"
         sodipodi:nodetypes="cccccccc" />
      <path
         style="fill:#000000;fill-opacity:0.512111;fill-rule:nonzero;stroke:#000000;stroke-width:2.52549;stroke-linecap:round;stroke-linejoin:round;stroke-miterlimit:4;stroke-opacity:0.186851"
         id="path9159"
         d="m 981.03491,100.22045 c -2.33444,6.04683 -4.4306,12.18623 -6.56211,18.30639 -7.09639,20.62951 -15.30184,42.03906 -32.38972,56.50518 -9.83225,7.30254 -22.32233,14.755 -34.57982,9.15701 l 9.19406,-6.068 c 4.45182,2.27867 9.23308,2.65068 14.06789,1.29704 3.29792,-0.92333 5.4067,-2.22398 5.19115,-2.05808 -1.46668,1.12881 -3.10156,2.04041 -4.76927,2.84298 -1.09884,0.52879 2.03479,-1.34447 3.05231,-2.01671 17.88404,-13.95599 27.41045,-35.02459 33.37491,-56.42373 1.93933,-6.97106 3.70061,-13.96934 4.93545,-21.10205 0.0138,-0.0795 0.40648,-3.971817 0.41544,-3.976552 3.89116,-2.071309 7.87588,-3.961806 11.81389,-5.942715 0,0 -2.97516,7.487408 -3.74418,9.479237 z"
         sodipodi:nodetypes="cccccccccccccc" />
      <path
         style="fill:#000000;fill-opacity:0.512111;fill-rule:nonzero;stroke:#000000;stroke-width:2.52549;stroke-linecap:round;stroke-linejoin:round;stroke-miterlimit:4;stroke-opacity:0.186851"
         id="path9161"
         d="m 920.97791,99.451301 c 7.66778,-5.151566 10.47486,-7.954397 18.49154,-6.761202 10.37183,1.961172 18.43106,8.898921 23.4799,17.935581 4.73997,9.54288 5.27575,20.55618 2.30767,30.71276 -0.30748,1.06095 -0.75007,2.06783 -1.22259,3.06242 l -10.97441,4.8541 c 0.73201,-0.98294 1.41895,-1.99014 1.91142,-3.12107 4.24561,-9.75446 4.17237,-21.00513 -0.60145,-30.56602 -5.13382,-8.99956 -13.76192,-15.54581 -24.3671,-16.111152 z"
         sodipodi:nodetypes="cccccccccc" />
      <path
         style="fill:#000000;fill-opacity:0.512111;fill-rule:nonzero;stroke:#000000;stroke-width:2.52549;stroke-linecap:round;stroke-linejoin:round;stroke-miterlimit:4;stroke-opacity:0.186851"
         id="path9163"
         d="m 623.41701,155.42829 c 21.02713,3.19015 49.10078,4.86578 70.83278,6.29689 98.18414,5.92673 193.23641,11.24893 291.85114,14.3081 4.60612,0.14794 9.21224,0.29588 13.81837,0.44384 l -12.27201,4.58791 c -3.9447,-0.3924 -7.88939,-0.78479 -11.83421,-1.17719 -97.28342,-8.56691 -196.22142,-10.90265 -294.69535,-11.53637 -26.95662,-0.1153 -54.95374,-0.51083 -81.52655,0.63577 z"
         sodipodi:nodetypes="ccccccccc" />
    </g>
  </g>
</svg>
